<svg width="207" height="31" viewBox="0 0 207 31" fill="none" xmlns="http://www.w3.org/2000/svg">
<path d="M10.3083 22.2559C11.8663 22.009 13.1295 21.8895 14.1144 21.8895C15.2746 21.8895 16.407 22.0355 17.5088 22.3355V8.04333H18.3323V12.1818C19.5342 11.5766 20.483 10.7828 21.1813 9.80331C21.888 8.82908 22.2358 7.81769 22.2358 6.7771C22.2358 4.89236 21.1813 3.35802 19.064 2.18736C16.9912 2.68642 15.9563 3.90752 15.9563 5.85862V13.5887C15.9284 14.8682 15.8227 15.9274 15.6502 16.7609C15.4749 17.5998 15.1883 18.3191 14.7905 18.9138C14.3926 19.5057 13.8556 20.0526 13.1712 20.5543C12.4951 21.0507 11.538 21.6161 10.3083 22.2559ZM22.5864 15.2266C22.5864 14.486 22.5502 13.9471 22.4806 13.6073C22.4167 13.2755 22.2497 12.9808 21.9854 12.7286C21.7211 12.4818 21.2676 12.2216 20.6249 11.9482C19.7791 12.434 19.0195 12.9277 18.3351 13.4348V15.3062C19.167 15.5133 19.8931 15.6195 20.5219 15.6195C21.2314 15.6195 21.9158 15.492 22.5864 15.2266ZM18.3323 18.9775C19.0668 18.8235 19.7791 18.7439 20.4635 18.7439C21.1424 18.7439 21.8546 18.8235 22.5864 18.9775V16.0867C21.888 16.2459 21.198 16.3256 20.4969 16.3256C19.7902 16.3256 19.064 16.2459 18.3323 16.0867V18.9775ZM18.3323 22.6487C18.7023 22.7629 19.0668 22.8823 19.4369 23.0018C19.8069 23.1159 20.1714 23.2354 20.5414 23.3495C20.7584 23.2221 21.1006 23.0549 21.5681 22.8638C22.0299 22.67 22.3721 22.516 22.5892 22.4178V19.8402C21.8685 19.5933 21.1368 19.4686 20.4023 19.4686C19.7179 19.4686 19.0334 19.5695 18.3351 19.7606V22.6487H18.3323ZM32.6915 3.20406C34.0242 1.92456 35.3931 1.22641 36.7842 1.09103L36.8677 1.24499C35.6101 2.21125 34.9813 3.41112 34.9813 4.84193V21.8683L37.6829 23.6601L38.6678 22.8001L39.241 23.5062C38.8292 23.8672 38.2143 24.4326 37.3963 25.1865C36.5783 25.9404 35.9662 26.4979 35.5517 26.8668C33.9936 25.5263 32.06 24.4618 29.7423 23.6628C30.1625 23.2619 30.4629 22.8293 30.6299 22.37C30.8052 21.9028 30.8886 21.3507 30.8886 20.6976V4.61098C30.8886 4.15174 30.7634 3.72435 30.5102 3.31821C30.2598 2.91737 29.9176 2.48467 29.4975 2.0334L29.6589 1.87943C30.616 2.11303 31.5174 2.55369 32.3604 3.20406H32.6915ZM48.5365 22.4151L43.2975 26.8668H42.9692C42.0399 25.9802 41.3332 25.1334 40.838 24.3291C40.3483 23.5221 40.1035 22.5957 40.1035 21.5577C40.1035 20.6578 40.2704 19.7712 40.6126 18.8925C40.9548 18.0139 41.4223 17.1936 42.0232 16.4211C42.6242 15.654 43.2947 14.9213 44.0292 14.2152L42.0677 9.06534C42.2069 9.07861 42.4155 9.08392 42.7021 9.08392C44.3353 9.08392 45.6847 8.55035 46.7336 7.49914L52.3065 9.45025L53.4527 8.59017L53.6976 8.82908C52.9798 9.95462 52.5096 11.0005 52.3065 11.9482V22.4895C52.4956 23.0496 52.824 23.4425 53.2914 23.6628L54.0259 23.1956L54.599 23.7424L50.996 26.8668C50.0667 26.3333 49.424 25.728 49.0679 25.0617C48.7118 24.3875 48.5365 23.5088 48.5365 22.4151ZM48.5365 21.2445V16.9467L44.6052 14.9213C43.8846 16.1398 43.5229 17.406 43.5229 18.7067C43.5229 20.5915 44.2435 22.2718 45.6735 23.7451L48.5365 21.2445ZM44.6886 14.1329L48.5365 16.1663V11.7942L43.0527 9.76083L44.6886 14.1329ZM61.9609 7.49649L66.1371 10.228L64.3342 12.8879L60.8981 10.7032V22.1046L64.1728 23.7451L65.8922 22.4178L66.4654 23.039C65.7587 23.5646 64.7821 24.3105 63.5523 25.29C62.317 26.2616 61.6465 26.7899 61.5547 26.8695C59.6127 25.3697 57.7346 24.4645 55.9039 24.138C56.3519 23.7716 56.6579 23.3575 56.8109 22.885C56.9723 22.4178 57.0474 21.8444 57.0474 21.1648V10.7749C58.9366 9.9148 60.5698 8.82112 61.9609 7.49649ZM75.2239 23.8964L77.3551 21.5577C77.2299 20.7375 76.9934 19.9995 76.6373 19.3385C76.2812 18.6855 75.7859 18.067 75.1488 17.4936L73.0176 19.4473V22.6514L75.2239 23.8964ZM73.0176 18.2793L78.3317 13.3551L75.964 10.7828L73.0176 13.6684V18.2793ZM69.1697 4.69062C69.1697 4.15705 69.0445 3.67657 68.7913 3.26511C68.5409 2.84569 68.1709 2.413 67.6951 1.9511L67.8621 1.7175C68.8665 2.04401 69.7401 2.48467 70.4802 3.04479H70.8864C71.977 1.83961 73.2902 1.16004 74.8177 1.01935L74.9012 1.17332C73.6436 2.13958 73.0148 3.33944 73.0148 4.76494V12.3411L78.009 7.50445L81.7733 11.5633C81.3337 11.9296 80.0762 13.095 78.0006 15.0753C78.8882 15.7548 79.5309 16.4477 79.9148 17.1538C80.3071 17.8679 80.5658 18.5793 80.6827 19.2987C80.8079 20.026 80.9415 20.7773 81.0945 21.5577C81.2392 22.3382 81.5202 23.0098 81.9319 23.5831L82.6665 23.0363L83.3231 23.7424L79.5587 26.8668C78.9299 26.4129 78.4819 25.8661 78.2176 25.2476C77.9505 24.6211 77.7419 23.8353 77.5972 22.8823L73.9163 26.9412C71.5263 25.521 69.5648 24.5892 68.0206 24.13C68.4686 23.7292 68.7746 23.2965 68.9277 22.8425C69.089 22.3886 69.1669 21.8285 69.1669 21.1622V10.3873H67.1192V8.28224H69.1669V4.69062H69.1697ZM99.0178 10.374C99.7718 9.78738 100.303 9.34141 100.623 9.02817C100.946 8.71493 101.174 8.30879 101.308 7.80176C101.447 7.42216 101.516 7.00274 101.516 6.54881C101.516 5.9887 101.405 5.44186 101.194 4.91625C100.985 4.39065 100.69 3.94203 100.328 3.58366C99.769 3.09788 99.1485 2.85631 98.4641 2.85631C97.8631 2.85631 97.3456 3.05009 96.9144 3.43501C96.4748 3.81461 96.2578 4.30836 96.2578 4.90829C96.2578 5.33567 96.383 5.78164 96.6417 6.23557L99.0178 10.374ZM96.1548 23.0283L99.9192 20.0552L96.0714 13.7321L91.987 16.7768L96.1548 23.0283ZM100.409 20.9153L93.1305 26.62L87.8081 18.8102L95.5817 12.9543L92.0621 7.24962C91.8034 6.84878 91.6782 6.47714 91.6782 6.13735C91.6782 5.33037 92.2931 4.58443 93.5367 3.89159L101.31 0.0663641C102.309 0.719387 103.077 1.39896 103.622 2.11834C104.168 2.83242 104.446 3.65003 104.446 4.57647C104.446 4.97731 104.382 5.42858 104.257 5.92233C104.095 6.6019 103.767 7.24165 103.286 7.85486C102.804 8.46806 102.259 9.02021 101.653 9.51396C101.046 10.0077 100.331 10.5545 99.5158 11.1545L103.358 17.6369L108.269 13.7321C109.295 14.7116 110.475 15.1974 111.811 15.1974C112.042 15.1974 112.278 15.1761 112.531 15.1363L112.693 15.2956C111.644 16.8804 110.445 17.6741 109.09 17.6741C108.196 17.6741 107.267 17.2945 106.31 16.5406L103.859 18.3404C104.235 18.9987 104.563 19.5456 104.835 19.9809C105.108 20.4083 105.442 20.8277 105.826 21.2259C106.218 21.632 106.65 21.94 107.125 22.1656C107.726 22.4789 108.363 22.6328 109.031 22.6328C109.59 22.6328 110.155 22.5134 110.728 22.2798C111.301 22.0462 111.819 21.7196 112.278 21.3055L112.606 21.4595C112.361 22.3328 111.991 23.1133 111.496 23.8061C110.993 24.4937 110.378 25.0246 109.632 25.4042C108.892 25.7838 108.027 25.9776 107.047 25.9908C105.475 25.9908 104.24 25.5714 103.339 24.7379C102.434 23.9097 101.463 22.6355 100.409 20.9153ZM147.663 16.2459V23.2752C149.251 22.8425 150.807 22.0886 152.315 21.0109V16.2459C151.527 15.9725 150.765 15.8318 150.025 15.8318C149.279 15.8318 148.492 15.9725 147.663 16.2459ZM152.318 15.3859V11.327C151.397 11.5872 150.595 11.7146 149.914 11.7146C149.174 11.7146 148.425 11.5872 147.666 11.327V15.3859C148.495 15.1124 149.282 14.9717 150.028 14.9717C150.768 14.9717 151.527 15.1124 152.318 15.3859ZM140.715 21.5577C141.361 22.0515 141.981 22.4364 142.58 22.7178C143.178 22.9965 143.826 23.2035 144.513 23.323C145.206 23.4504 145.941 23.5088 146.717 23.5088V2.26434C146.11 2.72358 145.699 3.20406 145.476 3.71108C145.253 4.2181 145.139 4.8844 145.139 5.70466V13.902C145.139 15.1018 144.997 16.161 144.714 17.0795C144.43 17.9926 143.96 18.8129 143.311 19.5376C142.66 20.257 141.792 20.9312 140.715 21.5577ZM140.081 20.8569C140.646 20.2172 141.024 19.6119 141.219 19.0385C141.408 18.4652 141.5 17.7192 141.5 16.7928V10.6209C141.5 9.3361 141.742 8.15482 142.221 7.07707C142.705 6.00462 143.411 4.92422 144.349 3.83319C142.477 4.92687 141.049 6.25946 140.053 7.83097C139.063 9.41043 138.465 11.3031 138.27 13.5144C138.228 13.902 138.209 14.2869 138.209 14.6665C138.209 17.045 138.835 19.1102 140.081 20.8569ZM125.327 21.5577C126.181 22.2851 127.057 22.7974 127.953 23.0894C128.841 23.3814 129.879 23.5301 131.044 23.5301C131.167 23.5301 131.273 23.5221 131.362 23.5168C131.456 23.5115 131.576 23.5115 131.718 23.5115V2.26434C130.969 2.77137 130.452 3.29697 130.168 3.83585C129.884 4.37472 129.745 5.10207 129.745 6.01524V13.8993C129.745 15.792 129.414 17.2918 128.763 18.4041C128.101 19.5164 126.957 20.5702 125.327 21.5577ZM128.958 3.83054C127.247 4.59771 125.908 5.556 124.937 6.71605C123.502 8.68043 122.661 10.9474 122.411 13.5117C122.383 13.7453 122.372 14.0984 122.372 14.5656C122.372 17.0901 123.12 19.1898 124.62 20.8569C125.118 20.3579 125.455 19.7765 125.622 19.1182C125.791 18.4519 125.878 17.6794 125.878 16.7928V10.6209C125.878 9.36265 126.148 8.18933 126.687 7.10892C127.227 6.03117 127.981 4.93749 128.958 3.83054ZM143.32 3.59163C142.532 3.76417 141.798 3.84381 141.13 3.84381C140.907 3.8385 140.674 3.82523 140.429 3.81195C140.187 3.79868 139.964 3.78541 139.77 3.77214C139.569 3.75886 139.391 3.74559 139.244 3.73763C139.088 3.72966 138.851 3.72966 138.523 3.72966C138.181 3.72966 137.911 3.73763 137.716 3.7509C135.966 3.90486 134.753 4.81803 134.085 6.48245L133.534 6.24885C133.824 4.63752 134.391 3.27573 135.237 2.18471C136.086 1.09103 137.304 0.544186 138.901 0.544186C139.205 0.544186 139.589 0.618513 140.067 0.756551C140.537 0.902552 141.097 1.08306 141.745 1.29543C142.385 1.50779 142.891 1.66972 143.253 1.76263C143.617 1.8635 144.015 1.90863 144.446 1.90863C145.481 1.90863 146.216 1.4547 146.633 0.541531H147.663V10.3847C148.45 10.6846 149.199 10.8306 149.911 10.8306C150.631 10.8306 151.433 10.6846 152.315 10.3847V5.39142L151.054 4.06414L149.869 5.22949L149.082 4.61098L153.024 0.54684L155.946 3.28635L158.469 1.72016L158.861 1.95376C157.601 3.41377 156.969 4.7384 156.969 5.93826V21.4038C156.969 22.4842 157.234 23.315 157.757 23.9017L159.179 22.7284L159.732 23.5088L155.787 27.1004C155.303 26.8403 154.852 26.5403 154.426 26.2006C154.009 25.8608 153.672 25.5024 153.422 25.1201C153.172 24.7326 152.971 24.2813 152.81 23.761C152.654 23.2407 152.54 22.7151 152.473 22.1815C151.308 23.2885 150.311 24.1539 149.491 24.7883C148.662 25.4201 147.707 25.9616 146.608 26.4129C145.509 26.8722 144.36 27.1004 143.161 27.1004C141.478 27.0606 139.998 26.5802 138.704 25.6537C137.419 24.7352 136.4 23.4955 135.666 21.9479C135.006 22.8399 134.408 23.5885 133.86 24.1725C133.315 24.7512 132.68 25.2794 131.968 25.7519C131.247 26.2191 130.455 26.5642 129.592 26.7846C128.947 26.9518 128.259 27.0367 127.539 27.0367C126.198 27.0367 124.926 26.7368 123.721 26.1315C122.517 25.5263 121.526 24.6981 120.753 23.6601C119.412 21.8152 118.738 19.6411 118.738 17.1432C118.738 15.8504 118.933 14.5364 119.331 13.1985C119.762 11.6987 120.369 10.3661 121.148 9.18745C121.921 8.00882 122.837 6.9762 123.897 6.08161C124.96 5.18967 126.225 4.3349 127.695 3.5173C126.59 3.87832 125.68 4.06414 124.954 4.06414C124.787 4.05087 124.603 4.03759 124.417 4.02432C124.228 4.01105 124.039 3.99777 123.852 3.9845C123.671 3.97123 123.516 3.96326 123.379 3.95796C123.251 3.94999 123.029 3.94468 122.725 3.94468C122.308 3.94468 121.966 3.95796 121.702 3.9845C120.914 4.05087 120.28 4.2181 119.81 4.48356C119.331 4.74902 118.947 5.11004 118.644 5.56397C118.341 6.02321 118.018 6.63641 117.676 7.42216L117.044 7.26289C117.191 5.39142 117.664 3.79868 118.48 2.49264C119.287 1.17863 120.486 0.528258 122.083 0.528258C122.358 0.528258 122.709 0.560113 123.126 0.629132C123.652 0.716732 124.353 0.915825 125.227 1.2211C126.103 1.52637 126.768 1.7467 127.227 1.8874C127.692 2.02809 128.17 2.09445 128.668 2.09445C129.787 2.09445 130.802 1.58212 131.726 0.549495H132.755V23.2779C133.671 22.6647 134.514 21.9108 135.273 21.0135C134.761 19.6995 134.505 18.2873 134.505 16.7768C134.505 15.93 134.606 15.0036 134.8 13.9842C135.17 12.3729 135.735 10.9395 136.503 9.67854C137.277 8.42559 138.228 7.30536 139.366 6.33379C140.498 5.3516 141.82 4.43843 143.32 3.59163ZM161.897 22.9567V10.3873H159.849V8.28224H161.897C161.897 8.10173 161.911 7.70886 161.939 7.10892C161.966 6.50899 161.98 6.03648 161.98 5.68342C161.98 4.5101 161.841 3.71108 161.569 3.2837C161.352 2.91737 160.968 2.4714 160.422 1.9511L160.589 1.7175C161.594 2.04401 162.467 2.48467 163.207 3.04479H163.613C164.626 1.85289 165.931 1.17332 167.545 1.01935L167.623 1.17332C166.373 2.13958 165.745 3.33944 165.745 4.76494V11.8739L171.229 7.58144C172.046 8.12828 172.703 8.8397 173.19 9.72632C173.685 10.6129 173.93 11.5314 173.93 12.4977V22.3328C173.93 24.706 172.862 26.612 170.725 28.0561C168.594 29.4949 166.115 30.4824 163.288 31L163.21 30.6071C163.844 30.3337 164.676 29.9674 165.683 29.5081C166.696 29.0489 167.492 28.5897 168.087 28.141C168.68 27.6871 169.161 27.1137 169.517 26.4076C169.882 25.7068 170.068 24.8414 170.082 23.8168V12.495C170.013 11.85 169.579 11.25 168.775 10.7032L165.745 13.0419V22.9567L166.891 24.13L163.7 26.9412L160.592 24.2893L161.897 22.9567ZM179.35 6.0179L180.335 1.64052H182.786L179.678 6.0179H179.35ZM181.067 22.5691C181.242 23.0894 181.57 23.4823 182.051 23.7424L182.703 23.1956L183.359 23.8221L179.595 26.9412C178.632 26.4209 177.959 25.8156 177.603 25.1148C177.241 24.422 177.057 23.5301 177.057 22.4496V21.9426V11.481L175.828 10.1484L178.935 7.49649L182.127 10.3077L181.064 11.481V22.5691H181.067ZM186.025 10.3873H184.636V9.68916L190.034 2.73155V8.28224H194.043V10.3873H190.034V22.1019L191.995 23.7424L193.142 22.8027L193.715 23.5088C193.169 23.9628 192.624 24.4485 192.073 24.9741C191.514 25.4944 190.835 26.1262 190.034 26.8668C188.331 25.3272 186.612 24.2601 184.878 23.6628C185.298 23.2619 185.599 22.8293 185.766 22.37C185.941 21.9028 186.025 21.3507 186.025 20.6976V10.3873ZM201.753 7.49649L207 12.9596C205.89 13.7188 204.744 14.5576 203.556 15.4788C202.368 16.4052 201.224 17.337 200.119 18.2714V22.3355L203.311 23.7424L205.845 22.0223L206.502 22.7284C204.813 23.8221 202.899 25.1998 200.776 26.8668C199.059 25.8263 197.173 25.0671 195.125 24.6025C195.57 24.1964 195.879 23.769 196.032 23.315C196.194 22.8558 196.269 22.2957 196.269 21.6347V10.7749C198.155 9.88294 199.98 8.7813 201.753 7.49649ZM199.958 17.1777L203.639 14.2125L199.958 10.3873V17.1777ZM16.6073 27.1004C15.6029 26.7474 14.8489 26.4872 14.3509 26.3067C13.8556 26.1342 13.2547 25.959 12.5563 25.7944C11.8635 25.6219 11.2153 25.5024 10.6088 25.4201C9.99944 25.3405 9.27605 25.3007 8.43024 25.3007C7.20048 25.367 6.00133 25.5661 4.82722 25.9006C3.65311 26.2271 3.00484 26.7872 2.86573 27.5677C2.86573 27.934 2.93528 28.3667 3.06883 28.8737C3.20794 29.386 3.2775 29.7524 3.2775 29.986C3.2775 30.2461 3.17177 30.4797 2.97702 30.6788C2.78226 30.8859 2.54298 30.9841 2.27032 30.9841C2.17294 30.9841 2.07278 30.9628 1.96149 30.923C1.3327 30.7292 1.01831 30.27 1.01831 29.5559C1.01831 29.102 1.14351 28.5897 1.38835 28.0295C1.63319 27.4694 1.87802 27.058 2.12286 26.7846C2.30371 26.5775 2.77113 26.0705 3.52512 25.2794C4.27911 24.4857 4.8606 23.7876 5.26403 23.1743C5.67024 22.5611 5.92899 21.9161 6.05419 21.2418C6.08202 21.0826 6.09593 20.9817 6.09593 20.9286C6.09593 20.5623 5.9902 20.2756 5.77319 20.0685C5.56452 19.8615 5.25012 19.7553 4.82444 19.7553C4.15391 19.8747 3.45 20.3419 2.70157 21.1622C2.6181 20.8357 2.57637 20.5171 2.57637 20.2092C2.57637 18.6165 3.73657 17.5573 6.05419 17.0237C6.08202 16.7901 6.09593 16.6176 6.09593 16.5167C6.09593 15.9699 5.95681 15.4628 5.68415 14.9903C5.41149 14.5231 5.01363 14.1833 4.49613 13.9763C4.07601 13.7958 3.6225 13.7029 3.14952 13.7029C2.40944 13.7029 1.44399 13.9497 0.244839 14.4435C0.383952 13.7029 0.698347 13.0631 1.2075 12.5322C1.71109 11.9986 2.32597 11.5925 3.0577 11.3138C3.78387 11.035 4.53786 10.8811 5.31411 10.8545C5.43931 9.18745 5.80936 7.80973 6.43258 6.71074C7.05302 5.61175 8.04629 4.54461 9.4096 3.51995C8.46641 3.83319 7.72077 3.98716 7.16153 3.98716C6.74976 3.98716 6.20444 3.87301 5.51444 3.64737C4.83 3.42173 4.24294 3.24653 3.76718 3.12708C3.46669 3.03417 3.16065 2.99435 2.84625 2.99435C1.81403 2.99435 0.918145 3.55977 0.164153 4.68796H0C0.161371 3.8677 0.489677 3.10849 0.971008 2.39442C1.45234 1.6883 2.07278 1.11492 2.82121 0.674259C3.56964 0.241565 4.37927 0.0132728 5.23899 0C5.74258 0 6.25173 0.0530913 6.76923 0.159274C7.2923 0.260147 7.89327 0.398185 8.58605 0.578695C9.27048 0.751242 9.77407 0.870697 10.0801 0.931752C10.3862 0.992807 10.7924 1.01935 11.296 1.01935C11.8691 1.01935 12.5313 0.931752 13.2936 0.753896C14.0476 0.58135 14.7738 0.408803 15.4721 0.233602L15.55 0.387566C14.17 1.1335 13.0822 1.85819 12.2865 2.57758C11.4824 3.29166 10.9037 4.13581 10.5336 5.11535C10.1636 6.08692 9.98274 7.30005 9.98274 8.74679V14.9107C9.98274 16.2831 9.89093 17.4431 9.71564 18.3961C9.54036 19.3544 9.2204 20.2756 8.7669 21.1542C8.30504 22.0276 7.64843 22.9726 6.79149 23.9734C10.3389 21.8869 12.114 19.1553 12.114 15.7708V9.13436C12.114 7.56285 12.3226 6.24884 12.7483 5.18967C13.1684 4.13581 13.8529 3.26246 14.796 2.56431C15.7392 1.87147 17.0246 1.25295 18.6662 0.69815C20.2131 0.233602 21.365 0 22.0967 0C22.8869 0 23.5991 0.18051 24.2279 0.54684C25.7025 1.42019 26.4342 2.67315 26.4342 4.31898C26.4342 5.19764 26.1894 6.05241 25.6942 6.87001C25.3853 7.39562 25.032 7.87078 24.6452 8.29551C24.2557 8.72821 23.7577 9.22196 23.1512 9.78738C22.5446 10.3528 22.0828 10.7881 21.7684 11.0855C22.8729 11.1916 23.8217 11.3801 24.6119 11.6509C25.3992 11.9243 26.0419 12.365 26.526 12.9702C27.0074 13.5781 27.2522 14.4037 27.2522 15.4628V22.7257C25.7637 23.0257 24.4783 23.3655 23.3821 23.7584C22.2942 24.1512 21.2592 24.5919 20.2827 25.083C19.3117 25.582 18.0819 26.2536 16.6073 27.1004Z" fill="#171717"/>
</svg>
